<?xml version="1.0" encoding="UTF-8"?>
<svg id="_レイヤー_1" data-name="レイヤー_1" xmlns="http://www.w3.org/2000/svg" version="1.1" xmlns:xlink="http://www.w3.org/1999/xlink" viewBox="0 0 1575.32 560">
  <!-- Generator: Adobe Illustrator 29.8.3, SVG Export Plug-In . SVG Version: 2.1.1 Build 3)  -->
  <defs>
    <style>
      .st0 {
        fill: url(#_名称未設定グラデーション_1715);
      }

      .st1 {
        fill: url(#_名称未設定グラデーション_177);
      }

      .st2 {
        stroke-width: 1.74px;
      }

      .st2, .st3, .st4, .st5, .st6, .st7, .st8, .st9 {
        stroke-miterlimit: 10;
      }

      .st2, .st3, .st10, .st11, .st12, .st5, .st13, .st9 {
        fill: #fff;
      }

      .st2, .st3, .st12, .st5, .st9 {
        stroke: #000;
      }

      .st14 {
        fill: url(#_名称未設定グラデーション_1729);
      }

      .st15 {
        fill: url(#_名称未設定グラデーション_1735);
      }

      .st16 {
        fill: url(#_名称未設定グラデーション_1740);
      }

      .st17 {
        fill: url(#_名称未設定グラデーション_1732);
      }

      .st18 {
        fill: url(#_名称未設定グラデーション_1744);
      }

      .st3, .st12 {
        stroke-width: .87px;
      }

      .st19 {
        fill: url(#_名称未設定グラデーション_178);
      }

      .st4, .st6 {
        stroke-width: 6.24px;
      }

      .st4, .st6, .st7, .st8 {
        fill: none;
        stroke: #fff;
      }

      .st20 {
        fill: url(#_名称未設定グラデーション_1723);
      }

      .st21 {
        fill: url(#_名称未設定グラデーション_1737);
      }

      .st22 {
        fill: url(#_名称未設定グラデーション_1714);
      }

      .st10 {
        font-family: PShinGoPr6N-Bold-90ms-RKSJ-H, 'A P-OTF Shin Go Pr6N';
        font-size: 102.28px;
        font-weight: 700;
      }

      .st23 {
        fill: url(#_名称未設定グラデーション_1726);
      }

      .st24 {
        fill: url(#_名称未設定グラデーション_1742);
      }

      .st25 {
        fill: url(#_名称未設定グラデーション_1717);
      }

      .st26 {
        fill: url(#_名称未設定グラデーション_1743);
      }

      .st27 {
        fill: url(#_名称未設定グラデーション_1741);
      }

      .st11 {
        font-size: 36.29px;
      }

      .st11, .st13 {
        font-family: PShinGoPr6N-Regular-90ms-RKSJ-H, 'A P-OTF Shin Go Pr6N';
      }

      .st28 {
        fill: url(#_名称未設定グラデーション_1738);
      }

      .st29 {
        fill: url(#_名称未設定グラデーション_174);
      }

      .st12 {
        stroke-linejoin: round;
      }

      .st30 {
        fill: url(#_名称未設定グラデーション_1731);
      }

      .st31 {
        fill: url(#_名称未設定グラデーション_1712);
      }

      .st32 {
        fill: url(#_名称未設定グラデーション_1716);
      }

      .st33 {
        fill: url(#_名称未設定グラデーション_1710);
      }

      .st5 {
        stroke-width: 1.04px;
      }

      .st34 {
        fill: url(#_名称未設定グラデーション_1722);
      }

      .st35 {
        fill: url(#_名称未設定グラデーション_1747);
      }

      .st36 {
        fill: url(#_名称未設定グラデーション_1746);
      }

      .st37 {
        fill: url(#_名称未設定グラデーション_1720);
      }

      .st38 {
        fill: url(#_名称未設定グラデーション_1730);
      }

      .st39 {
        fill: url(#_名称未設定グラデーション_173);
      }

      .st40 {
        fill: url(#_名称未設定グラデーション_172);
      }

      .st41 {
        fill: url(#_名称未設定グラデーション_4);
      }

      .st42 {
        fill: url(#_名称未設定グラデーション_1711);
      }

      .st43 {
        fill: url(#_名称未設定グラデーション_175);
      }

      .st6 {
        stroke-dasharray: 15.24 15.24;
      }

      .st44 {
        fill: url(#_名称未設定グラデーション_171);
      }

      .st7 {
        stroke-dasharray: 15.1;
        stroke-width: 6.29px;
      }

      .st45 {
        fill: url(#_名称未設定グラデーション_1725);
      }

      .st46 {
        fill: url(#_名称未設定グラデーション_1745);
      }

      .st47 {
        fill: url(#_名称未設定グラデーション_1727);
      }

      .st48 {
        fill: url(#_名称未設定グラデーション_179);
      }

      .st49 {
        fill: url(#_名称未設定グラデーション_176);
      }

      .st50 {
        fill: url(#_名称未設定グラデーション_1736);
      }

      .st51 {
        fill: url(#_名称未設定グラデーション_1733);
      }

      .st13 {
        font-size: 46.06px;
      }

      .st52 {
        fill: url(#_名称未設定グラデーション_1724);
      }

      .st8 {
        stroke-dasharray: 12.48;
        stroke-width: 5.2px;
      }

      .st53 {
        fill: url(#_名称未設定グラデーション_1719);
      }

      .st54 {
        fill: url(#_名称未設定グラデーション_17);
      }

      .st55 {
        fill: url(#_名称未設定グラデーション_1734);
      }

      .st56 {
        fill: url(#_名称未設定グラデーション_1721);
      }

      .st57 {
        fill: url(#_名称未設定グラデーション_1728);
      }

      .st58 {
        fill: url(#_名称未設定グラデーション_1718);
      }

      .st59 {
        fill: url(#_名称未設定グラデーション_1713);
      }

      .st9 {
        stroke-width: .8px;
      }

      .st60 {
        fill: url(#_名称未設定グラデーション_1739);
      }
    </style>
    <linearGradient id="_名称未設定グラデーション_4" data-name="名称未設定グラデーション 4" x1="787.66" y1="560" x2="787.66" y2="0" gradientUnits="userSpaceOnUse">
      <stop offset="0" stop-color="#0050a9"/>
      <stop offset="1" stop-color="#389eff"/>
    </linearGradient>
    <linearGradient id="_名称未設定グラデーション_17" data-name="名称未設定グラデーション 17" x1="164.14" y1="239.75" x2="164.14" y2="262.28" gradientUnits="userSpaceOnUse">
      <stop offset="0" stop-color="#0050a9"/>
      <stop offset="1" stop-color="#389eff"/>
    </linearGradient>
    <linearGradient id="_名称未設定グラデーション_171" data-name="名称未設定グラデーション 17" x1="169.72" y1="246.32" x2="169.72" y2="256.26" xlink:href="#_名称未設定グラデーション_17"/>
    <linearGradient id="_名称未設定グラデーション_172" data-name="名称未設定グラデーション 17" x1="153.98" y1="246.49" x2="153.98" y2="264.47" xlink:href="#_名称未設定グラデーション_17"/>
    <linearGradient id="_名称未設定グラデーション_173" data-name="名称未設定グラデーション 17" x1="151.38" y1="249.91" x2="151.38" y2="251.6" xlink:href="#_名称未設定グラデーション_17"/>
    <linearGradient id="_名称未設定グラデーション_174" data-name="名称未設定グラデーション 17" x1="169.16" y1="253.76" x2="169.16" y2="258.76" xlink:href="#_名称未設定グラデーション_17"/>
    <linearGradient id="_名称未設定グラデーション_175" data-name="名称未設定グラデーション 17" x1="150.59" y1="258.26" x2="150.59" y2="263.4" xlink:href="#_名称未設定グラデーション_17"/>
    <linearGradient id="_名称未設定グラデーション_176" data-name="名称未設定グラデーション 17" x1="167.4" y1="259.75" x2="167.4" y2="262.83" xlink:href="#_名称未設定グラデーション_17"/>
    <linearGradient id="_名称未設定グラデーション_177" data-name="名称未設定グラデーション 17" y1="239.75" y2="262.28" xlink:href="#_名称未設定グラデーション_17"/>
    <linearGradient id="_名称未設定グラデーション_178" data-name="名称未設定グラデーション 17" x1="169.72" y1="246.32" x2="169.72" y2="256.26" xlink:href="#_名称未設定グラデーション_17"/>
    <linearGradient id="_名称未設定グラデーション_179" data-name="名称未設定グラデーション 17" x1="169.16" y1="253.76" x2="169.16" y2="258.76" xlink:href="#_名称未設定グラデーション_17"/>
    <linearGradient id="_名称未設定グラデーション_1710" data-name="名称未設定グラデーション 17" x1="167.4" y1="259.75" x2="167.4" y2="262.83" xlink:href="#_名称未設定グラデーション_17"/>
    <linearGradient id="_名称未設定グラデーション_1711" data-name="名称未設定グラデーション 17" x1="153.98" y1="246.49" x2="153.98" y2="264.47" xlink:href="#_名称未設定グラデーション_17"/>
    <linearGradient id="_名称未設定グラデーション_1712" data-name="名称未設定グラデーション 17" x1="150.59" y1="258.26" x2="150.59" y2="263.4" xlink:href="#_名称未設定グラデーション_17"/>
    <linearGradient id="_名称未設定グラデーション_1713" data-name="名称未設定グラデーション 17" x1="147.44" y1="251.77" x2="147.44" y2="257.78" xlink:href="#_名称未設定グラデーション_17"/>
    <linearGradient id="_名称未設定グラデーション_1714" data-name="名称未設定グラデーション 17" x1="151.38" y1="249.91" x2="151.38" y2="251.6" xlink:href="#_名称未設定グラデーション_17"/>
    <linearGradient id="_名称未設定グラデーション_1715" data-name="名称未設定グラデーション 17" x1="179.15" y1="257.01" x2="179.15" y2="262.57" xlink:href="#_名称未設定グラデーション_17"/>
    <linearGradient id="_名称未設定グラデーション_1716" data-name="名称未設定グラデーション 17" x1="190.82" y1="257.02" x2="190.82" y2="262.57" xlink:href="#_名称未設定グラデーション_17"/>
    <linearGradient id="_名称未設定グラデーション_1717" data-name="名称未設定グラデーション 17" x1="197.6" y1="257.03" x2="197.6" y2="262.57" xlink:href="#_名称未設定グラデーション_17"/>
    <linearGradient id="_名称未設定グラデーション_1718" data-name="名称未設定グラデーション 17" x1="203.88" y1="257.02" x2="203.88" y2="262.57" xlink:href="#_名称未設定グラデーション_17"/>
    <linearGradient id="_名称未設定グラデーション_1719" data-name="名称未設定グラデーション 17" x1="197.6" y1="257.03" x2="197.6" y2="262.57" xlink:href="#_名称未設定グラデーション_17"/>
    <linearGradient id="_名称未設定グラデーション_1720" data-name="名称未設定グラデーション 17" x1="203.88" y1="257.02" x2="203.88" y2="262.57" xlink:href="#_名称未設定グラデーション_17"/>
    <linearGradient id="_名称未設定グラデーション_1721" data-name="名称未設定グラデーション 17" x1="190.82" y1="257.02" x2="190.82" y2="262.57" xlink:href="#_名称未設定グラデーション_17"/>
    <linearGradient id="_名称未設定グラデーション_1722" data-name="名称未設定グラデーション 17" x1="179.15" y1="257.01" x2="179.15" y2="262.57" xlink:href="#_名称未設定グラデーション_17"/>
    <linearGradient id="_名称未設定グラデーション_1723" data-name="名称未設定グラデーション 17" x1="184.93" y1="257.01" x2="184.93" y2="262.59" xlink:href="#_名称未設定グラデーション_17"/>
    <linearGradient id="_名称未設定グラデーション_1724" data-name="名称未設定グラデーション 17" x1="1469.01" y1="533.54" x2="1469.01" y2="556.07" xlink:href="#_名称未設定グラデーション_17"/>
    <linearGradient id="_名称未設定グラデーション_1725" data-name="名称未設定グラデーション 17" x1="1474.59" y1="540.11" x2="1474.59" y2="550.05" xlink:href="#_名称未設定グラデーション_17"/>
    <linearGradient id="_名称未設定グラデーション_1726" data-name="名称未設定グラデーション 17" x1="1458.85" y1="540.28" x2="1458.85" y2="558.26" xlink:href="#_名称未設定グラデーション_17"/>
    <linearGradient id="_名称未設定グラデーション_1727" data-name="名称未設定グラデーション 17" x1="1456.25" y1="543.71" x2="1456.25" y2="545.39" xlink:href="#_名称未設定グラデーション_17"/>
    <linearGradient id="_名称未設定グラデーション_1728" data-name="名称未設定グラデーション 17" x1="1474.03" y1="547.55" x2="1474.03" y2="552.55" xlink:href="#_名称未設定グラデーション_17"/>
    <linearGradient id="_名称未設定グラデーション_1729" data-name="名称未設定グラデーション 17" x1="1455.46" y1="552.05" x2="1455.46" y2="557.19" xlink:href="#_名称未設定グラデーション_17"/>
    <linearGradient id="_名称未設定グラデーション_1730" data-name="名称未設定グラデーション 17" x1="1472.28" y1="553.54" x2="1472.28" y2="556.62" xlink:href="#_名称未設定グラデーション_17"/>
    <linearGradient id="_名称未設定グラデーション_1731" data-name="名称未設定グラデーション 17" x1="1469.01" y1="533.54" x2="1469.01" y2="556.07" xlink:href="#_名称未設定グラデーション_17"/>
    <linearGradient id="_名称未設定グラデーション_1732" data-name="名称未設定グラデーション 17" x1="1474.59" y1="540.11" x2="1474.59" y2="550.05" xlink:href="#_名称未設定グラデーション_17"/>
    <linearGradient id="_名称未設定グラデーション_1733" data-name="名称未設定グラデーション 17" x1="1474.03" y1="547.55" x2="1474.03" y2="552.55" xlink:href="#_名称未設定グラデーション_17"/>
    <linearGradient id="_名称未設定グラデーション_1734" data-name="名称未設定グラデーション 17" x1="1472.28" y1="553.54" x2="1472.28" y2="556.62" xlink:href="#_名称未設定グラデーション_17"/>
    <linearGradient id="_名称未設定グラデーション_1735" data-name="名称未設定グラデーション 17" x1="1458.85" y1="540.28" x2="1458.85" y2="558.26" xlink:href="#_名称未設定グラデーション_17"/>
    <linearGradient id="_名称未設定グラデーション_1736" data-name="名称未設定グラデーション 17" x1="1455.46" y1="552.05" x2="1455.46" y2="557.19" xlink:href="#_名称未設定グラデーション_17"/>
    <linearGradient id="_名称未設定グラデーション_1737" data-name="名称未設定グラデーション 17" x1="1452.31" y1="545.56" x2="1452.31" y2="551.57" xlink:href="#_名称未設定グラデーション_17"/>
    <linearGradient id="_名称未設定グラデーション_1738" data-name="名称未設定グラデーション 17" x1="1456.25" y1="543.71" x2="1456.25" y2="545.39" xlink:href="#_名称未設定グラデーション_17"/>
    <linearGradient id="_名称未設定グラデーション_1739" data-name="名称未設定グラデーション 17" x1="1484.02" y1="550.8" x2="1484.02" y2="556.36" xlink:href="#_名称未設定グラデーション_17"/>
    <linearGradient id="_名称未設定グラデーション_1740" data-name="名称未設定グラデーション 17" x1="1495.7" y1="550.81" x2="1495.7" y2="556.36" xlink:href="#_名称未設定グラデーション_17"/>
    <linearGradient id="_名称未設定グラデーション_1741" data-name="名称未設定グラデーション 17" x1="1502.47" y1="550.82" x2="1502.47" y2="556.36" xlink:href="#_名称未設定グラデーション_17"/>
    <linearGradient id="_名称未設定グラデーション_1742" data-name="名称未設定グラデーション 17" x1="1508.75" y1="550.81" x2="1508.75" y2="556.36" xlink:href="#_名称未設定グラデーション_17"/>
    <linearGradient id="_名称未設定グラデーション_1743" data-name="名称未設定グラデーション 17" x1="1502.47" y1="550.82" x2="1502.47" y2="556.36" xlink:href="#_名称未設定グラデーション_17"/>
    <linearGradient id="_名称未設定グラデーション_1744" data-name="名称未設定グラデーション 17" x1="1508.75" y1="550.81" x2="1508.75" y2="556.36" xlink:href="#_名称未設定グラデーション_17"/>
    <linearGradient id="_名称未設定グラデーション_1745" data-name="名称未設定グラデーション 17" x1="1495.7" y1="550.81" x2="1495.7" y2="556.36" xlink:href="#_名称未設定グラデーション_17"/>
    <linearGradient id="_名称未設定グラデーション_1746" data-name="名称未設定グラデーション 17" x1="1484.02" y1="550.8" x2="1484.02" y2="556.36" xlink:href="#_名称未設定グラデーション_17"/>
    <linearGradient id="_名称未設定グラデーション_1747" data-name="名称未設定グラデーション 17" x1="1489.8" y1="550.8" x2="1489.8" y2="556.38" xlink:href="#_名称未設定グラデーション_17"/>
  </defs>
  <rect class="st41" width="1575.32" height="560"/>
  <path class="st5" d="M0,271.79l175.97,6.94c-12,17.87-27.56,46.68-33.34,85-1.66,11.05-2.29,21.37-2.28,30.72v165.55H0v-288.21Z"/>
  <g>
    <path class="st2" d="M157.26,242h50.18c9.16-.76,16.53,6.76,16.11,14.66-.4,7.4-7.57,13.86-16.11,13.1h-50.18l-38.3-17.81h-39.42l77.72-9.95Z"/>
    <g>
      <path class="st54" d="M169.51,249.63c1.01-2.1,1.84-4.3,2.39-6.57-.04-.06-.09-.12-.13-.17-.64-.74-1.68-1.69-2.47-2.27-.56-.41-1.25-.87-1.96-.86l.3.38c1.97,3.53.92,7.9-.72,11.35-1.78,3.72-4.75,6.63-8.14,8.89-.73.49-1.55.98-2.39,1.24l.11.67s.41-.19.47-.22c3.37-1.86,6.31-4.67,8.92-7.46,1.4-1.5,2.72-3.06,3.6-4.94l.04-.03Z"/>
      <path class="st44" d="M169.73,254.03c1.43-.97,2.78-2.05,4.19-3.04l.03-.05c.13-.96-.19-1.96-.54-2.84-.25-.61-.55-1.2-.87-1.77l-.72,1.87c-1.15,2.67-2.82,5.1-5.04,6.98-.43.37-.89.7-1.33,1.05,0,.08.03.02.07.01,1.38-.35,3.04-1.41,4.21-2.21"/>
      <path class="st40" d="M152.02,246.49c-.07-.01-.04.01-.06.04-.04.08-.22.56-.22.62.28,1.26.77,2.5.84,3.8.14,2.64-1.42,5.16-3.82,6.21-.48.21-1,.33-1.47.55l-3.31,1.06-.1.28c1.05-.31,2.1-.63,3.15-.94,2-.6,3.32-1.23,5.41-.33,1.68.73,2.59,1.98,3.11,3.69.3.99.5,2.01.79,3l.26-.49-.75-2.85c-.35-2.87,1.27-5.82,3.95-6.92l4.15-1.44.13-.3-4.02,1.25c-2.9.8-6.01-.96-7.12-3.67l-.92-3.56Z"/>
      <path class="st39" d="M151.01,250.28v1.32l.66-.48.07-1.21s-.26.12-.3.17l-.43.2Z"/>
      <path class="st29" d="M173.79,253.77s-.06.02-.08.04c-.12.1-.24.26-.36.37-1.85,1.67-5.39,3.86-7.88,4.17-.31.04-.62.02-.93.06-.04,0-.09,0-.1.06.65.11,1.3.24,1.95.28.81.05,1.61-.01,2.42-.08,1.59-.14,4.16-.27,4.79-2.06.19-.55.29-1.56.28-2.14,0-.21-.06-.47-.09-.69"/>
      <path class="st43" d="M148.09,258.26l-2.08.59s.14.45.18.53c1.34,3.13,4.74,4.78,8.03,3.68.32-.11.62-.27.94-.36l-.2-.81c-1.34.45-2.82.27-4.09-.3-.69-.31-1.22-.69-1.72-1.25-.52-.59-.94-1.28-1.07-2.07"/>
      <path class="st49" d="M171.46,259.75c-.26.09-.5.24-.76.35-2.05.85-4.49.89-6.56.1-.24-.09-.47-.21-.7-.31-.03-.01-.08-.05-.1-.01l.59.68c.74.75,1.59,1.42,2.21,2.28,1.19-.21,2.38-.56,3.43-1.17.78-.46,1.51-1.08,1.89-1.91"/>
      <path class="st1" d="M169.51,249.63l-.04.03c-.88,1.88-2.2,3.43-3.6,4.94-2.61,2.79-5.55,5.6-8.92,7.46-.06.03-.44.25-.47.22l-.11-.67c.84-.26,1.66-.75,2.39-1.24,3.39-2.26,6.37-5.16,8.14-8.89,1.65-3.45,2.69-7.82.72-11.35l-.3-.38c.72,0,1.4.45,1.96.86.8.58,1.83,1.53,2.47,2.27.05.06.09.12.13.17-.55,2.27-1.38,4.47-2.39,6.57"/>
      <path class="st19" d="M169.73,254.03c-1.17.8-2.83,1.86-4.21,2.21-.04.01-.08.06-.07-.01.44-.35.9-.69,1.33-1.05,2.22-1.88,3.9-4.31,5.04-6.98l.72-1.87c.32.57.62,1.16.87,1.77.36.88.67,1.89.54,2.84l-.03.05c-1.41,1-2.76,2.07-4.19,3.04"/>
      <path class="st48" d="M173.79,253.77c.02.22.08.47.09.69.01.58-.09,1.59-.28,2.14-.63,1.79-3.2,1.93-4.79,2.06-.8.07-1.6.14-2.42.08-.66-.04-1.31-.17-1.95-.28.01-.05.06-.05.1-.06.31-.04.62-.02.93-.06,2.49-.31,6.03-2.49,7.88-4.17.12-.11.24-.27.36-.37.03-.02.04-.05.08-.04"/>
      <path class="st33" d="M171.46,259.75c-.38.84-1.11,1.46-1.89,1.91-1.04.61-2.24.95-3.43,1.17-.61-.87-1.47-1.53-2.21-2.28l-.59-.68s.07,0,.1.01c.23.1.46.22.7.31,2.07.79,4.51.75,6.56-.1.26-.11.5-.26.76-.35"/>
      <path class="st42" d="M152.02,246.49l.92,3.56c1.11,2.71,4.22,4.47,7.12,3.67l4.02-1.25-.13.3-4.15,1.44c-2.68,1.1-4.3,4.05-3.95,6.92l.75,2.85-.26.49c-.29-.99-.49-2.01-.79-3-.52-1.71-1.42-2.97-3.11-3.69-2.09-.9-3.42-.27-5.41.33-1.05.31-2.1.63-3.15.94l.1-.28,3.31-1.06c.48-.22.99-.34,1.47-.55,2.4-1.05,3.96-3.57,3.82-6.21-.07-1.3-.56-2.54-.84-3.8,0-.06.18-.54.22-.62.01-.03-.01-.05.06-.04"/>
      <path class="st31" d="M148.09,258.26c.12.79.54,1.48,1.07,2.07.5.56,1.04.95,1.72,1.25,1.27.57,2.75.76,4.09.3l.2.81c-.32.09-.62.26-.94.36-3.29,1.1-6.69-.55-8.03-3.68-.03-.08-.21-.48-.18-.53l2.08-.59Z"/>
      <path class="st59" d="M148.74,251.77c.06.52.16,1.03.23,1.55,0,.04.03.08.05.12-.75.86-.99,1.95-1.09,3.06-.01.11-.06.23-.06.34,0,.2.12.27-.11.36-.33.14-.86.27-1.22.38-.22.06-.46.1-.66.2-.09-1.49.38-2.99,1.16-4.25.4-.66.86-1.21,1.5-1.64.03-.02.18-.14.21-.12"/>
      <path class="st22" d="M151.01,250.28l.43-.2s.28-.19.3-.17l-.07,1.21-.66.48v-1.32Z"/>
      <path class="st0" d="M182.45,257.01h-3.83c-.26,0-.69.18-.88.37-.23.25-.8,1.56-.94,1.94-.14.37-.13.6.3.72.87.06,1.84-.08,2.7,0,.09,0,.18.03.21.13l-.79,1.88h-3.18s-.19.52-.19.52h4c.19,0,.58-.29.7-.45.23-.31.63-1.37.76-1.77.08-.25.14-.38.02-.63-.05-.1-.22-.21-.32-.21h-2.74l.81-1.95h3.16s.21-.55.21-.55Z"/>
      <path class="st32" d="M194.14,262.57l-1.26-5.52h-.07c-.64.03-1.34-.07-1.97-.01-.36.03-.56.2-.74.49-.31.48-.55,1.09-.82,1.59-.5.96-1.03,1.94-1.53,2.92-.09.17-.2.35-.24.53h1.26l1.01-2.05h1.55s.22-.54.22-.54h-1.49l1.18-2.34c.06-.13.18-.11.3-.1l1.15,5.03h1.43Z"/>
      <path class="st25" d="M198.69,259.93h.66c.06,0,.31-.05.38-.07.27-.08.38-.28.5-.51.13-.26.55-1.25.59-1.49.04-.23.02-.46-.15-.62-.19-.19-.4-.16-.64-.2h-3.64s-2.02,5.54-2.02,5.54h1.36l1.9-5.03h1.88l-.68,1.72c-.08.16-.19.25-.37.27-.35.04-.77-.02-1.12,0-.04,0-.21,0-.21.04l1.52,2.99h1.4l-1.35-2.64Z"/>
      <path class="st58" d="M207.28,262.57l-1.7-5.51-.08-.03c-.58.05-1.25-.06-1.82,0-.42.05-.54.27-.72.6-.75,1.32-1.45,2.82-2.14,4.18-.12.23-.21.47-.35.69l.03.06h1.35l.97-2.04h1.4s.14-.54.14-.54h-1.32l1.08-2.42.12-.03,1.52,5.02h1.52Z"/>
      <path class="st53" d="M198.69,259.93l1.35,2.64h-1.4l-1.52-2.99s.17-.04.21-.04c.36-.02.78.04,1.12,0,.18-.02.29-.12.37-.27l.68-1.72h-1.88l-1.9,5.03h-1.36l2.02-5.52h3.64c.24.02.46,0,.64.18.17.17.18.39.15.62-.04.24-.46,1.23-.59,1.49-.12.24-.23.43-.5.51-.07.02-.32.07-.38.07h-.66Z"/>
      <path class="st37" d="M207.28,262.57h-1.52l-1.52-5.02-.12.03-1.08,2.42h1.32l-.14.53h-1.4s-.97,2.05-.97,2.05h-1.35l-.03-.06c.13-.22.23-.46.35-.69.68-1.37,1.39-2.87,2.14-4.18.19-.33.31-.55.72-.6.57-.06,1.24.04,1.82,0l.08.03,1.7,5.51Z"/>
      <path class="st56" d="M194.14,262.57h-1.43l-1.15-5.03c-.12,0-.24-.03-.3.1l-1.18,2.34h1.49l-.22.53h-1.55s-1.01,2.05-1.01,2.05h-1.26c.04-.18.15-.37.24-.53.5-.97,1.03-1.95,1.53-2.92.26-.51.51-1.12.82-1.59.19-.29.39-.46.74-.49.63-.06,1.33.04,1.97,0h.07s1.26,5.54,1.26,5.54Z"/>
      <path class="st34" d="M182.45,257.01l-.21.54h-3.16s-.81,1.97-.81,1.97h2.74c.1,0,.28.11.32.21.12.25.07.39-.02.63-.13.4-.53,1.46-.76,1.77-.12.16-.51.45-.7.45h-4l.19-.51h3.18s.79-1.89.79-1.89c-.03-.1-.12-.12-.21-.13-.86-.08-1.83.06-2.7,0-.43-.12-.43-.35-.3-.72.14-.38.7-1.7.94-1.94.18-.19.61-.37.88-.37h3.83Z"/>
      <path class="st20" d="M187.07,257.76l-1.84,4.3h-2.2c-.23-.07-.06-.28-.02-.43l1.73-4.06,2.26-.02c.11.04.09.11.06.21M188.16,257.1c-.26-.14-.47-.06-.72-.06-1.01.01-2.13-.07-3.12,0-.65.04-.85.28-1.11.82-.64,1.33-1.11,2.78-1.75,4.12-.06.13.07.39.16.47.1.09.37.11.51.12,1.22.07,2.51-.06,3.74,0,.48-.05.78-.47.97-.88.5-1.08,1.02-2.42,1.43-3.54.12-.34.33-.82-.11-1.05"/>
    </g>
    <polygon class="st2" points="93.72 221.54 93.72 251.94 81.94 251.94 84.53 221.54 93.72 221.54"/>
    <path class="st9" d="M95.98,251.53c1.43-.21,6.47-.92,11.1-1.02.54-.01,2.64-.04,5.32.39,1.35.22,2.53.41,2.53.63,0,.47-5.13.98-9.47.85-3.94-.11-7.2-.51-9.47-.85Z"/>
    <path class="st12" d="M163.72,266.45c2.56-.51,11.58-2.28,19.93-2.88.96-.07,4.75-.33,9.64.19,2.45.26,4.61.49,4.62.9.03.85-9.17,2.25-17.01,2.43-7.13.17-13.04-.23-17.18-.64Z"/>
    <polyline class="st3" points="197.91 264.66 185.05 199.75 170.38 199.75 163.72 266.45"/>
  </g>
  <g>
    <path class="st2" d="M1462.14,535.79h50.18c9.16-.76,16.53,6.76,16.11,14.66-.4,7.4-7.57,13.86-16.11,13.1h-50.18l-38.3-17.81h-39.42l77.72-9.95Z"/>
    <g>
      <path class="st52" d="M1474.39,543.42c1.01-2.1,1.84-4.3,2.39-6.57-.04-.06-.09-.12-.13-.17-.64-.74-1.68-1.69-2.47-2.27-.56-.41-1.25-.87-1.96-.86l.3.38c1.97,3.53.92,7.9-.72,11.35-1.78,3.72-4.75,6.63-8.14,8.89-.73.49-1.55.98-2.39,1.24l.11.67s.41-.19.47-.22c3.37-1.86,6.31-4.67,8.92-7.46,1.4-1.5,2.72-3.06,3.6-4.94l.04-.03Z"/>
      <path class="st45" d="M1474.6,547.82c1.43-.97,2.78-2.05,4.19-3.04l.03-.05c.13-.96-.19-1.96-.54-2.84-.25-.61-.55-1.2-.87-1.77l-.72,1.87c-1.15,2.67-2.82,5.1-5.04,6.98-.43.37-.89.7-1.33,1.05,0,.08.03.02.07.01,1.38-.35,3.04-1.41,4.21-2.21"/>
      <path class="st23" d="M1456.9,540.28c-.07-.01-.04.01-.06.04-.04.08-.22.56-.22.62.28,1.26.77,2.5.84,3.8.14,2.64-1.42,5.16-3.82,6.21-.48.21-1,.33-1.47.55l-3.31,1.06-.1.28c1.05-.31,2.1-.63,3.15-.94,2-.6,3.32-1.23,5.41-.33,1.68.73,2.59,1.98,3.11,3.69.3.99.5,2.01.79,3l.26-.49-.75-2.85c-.35-2.87,1.27-5.82,3.95-6.92l4.15-1.44.13-.3-4.02,1.25c-2.9.8-6.01-.96-7.12-3.67l-.92-3.56Z"/>
      <path class="st47" d="M1455.88,544.07v1.32l.66-.48.07-1.21s-.26.12-.3.17l-.43.2Z"/>
      <path class="st57" d="M1478.67,547.56s-.06.02-.08.04c-.12.1-.24.26-.36.37-1.85,1.67-5.39,3.86-7.88,4.17-.31.04-.62.02-.93.06-.04,0-.09,0-.1.06.65.11,1.3.24,1.95.28.81.05,1.61-.01,2.42-.08,1.59-.14,4.16-.27,4.79-2.06.19-.55.29-1.56.28-2.14,0-.21-.06-.47-.09-.69"/>
      <path class="st14" d="M1452.96,552.05l-2.08.59s.14.45.18.53c1.34,3.13,4.74,4.78,8.03,3.68.32-.11.62-.27.94-.36l-.2-.81c-1.34.45-2.82.27-4.09-.3-.69-.31-1.22-.69-1.72-1.25-.52-.59-.94-1.28-1.07-2.07"/>
      <path class="st38" d="M1476.33,553.54c-.26.09-.5.24-.76.35-2.05.85-4.49.89-6.56.1-.24-.09-.47-.21-.7-.31-.03-.01-.08-.05-.1-.01l.59.68c.74.75,1.59,1.42,2.21,2.28,1.19-.21,2.38-.56,3.43-1.17.78-.46,1.51-1.08,1.89-1.91"/>
      <path class="st30" d="M1474.39,543.42l-.04.03c-.88,1.88-2.2,3.43-3.6,4.94-2.61,2.79-5.55,5.6-8.92,7.46-.06.03-.44.25-.47.22l-.11-.67c.84-.26,1.66-.75,2.39-1.24,3.39-2.26,6.37-5.16,8.14-8.89,1.65-3.45,2.69-7.82.72-11.35l-.3-.38c.72,0,1.4.45,1.96.86.8.58,1.83,1.53,2.47,2.27.05.06.09.12.13.17-.55,2.27-1.38,4.47-2.39,6.57"/>
      <path class="st17" d="M1474.6,547.82c-1.17.8-2.83,1.86-4.21,2.21-.04.01-.08.06-.07-.01.44-.35.9-.69,1.33-1.05,2.22-1.88,3.9-4.31,5.04-6.98l.72-1.87c.32.57.62,1.16.87,1.77.36.88.67,1.89.54,2.84l-.03.05c-1.41,1-2.76,2.07-4.19,3.04"/>
      <path class="st51" d="M1478.67,547.56c.02.22.08.47.09.69.01.58-.09,1.59-.28,2.14-.63,1.79-3.2,1.93-4.79,2.06-.8.07-1.6.14-2.42.08-.66-.04-1.31-.17-1.95-.28.01-.05.06-.05.1-.06.31-.04.62-.02.93-.06,2.49-.31,6.03-2.49,7.88-4.17.12-.11.24-.27.36-.37.03-.02.04-.05.08-.04"/>
      <path class="st55" d="M1476.33,553.54c-.38.84-1.11,1.46-1.89,1.91-1.04.61-2.24.95-3.43,1.17-.61-.87-1.47-1.53-2.21-2.28l-.59-.68s.07,0,.1.01c.23.1.46.22.7.31,2.07.79,4.51.75,6.56-.1.26-.11.5-.26.76-.35"/>
      <path class="st15" d="M1456.9,540.28l.92,3.56c1.11,2.71,4.22,4.47,7.12,3.67l4.02-1.25-.13.3-4.15,1.44c-2.68,1.1-4.3,4.05-3.95,6.92l.75,2.85-.26.49c-.29-.99-.49-2.01-.79-3-.52-1.71-1.42-2.97-3.11-3.69-2.09-.9-3.42-.27-5.41.33-1.05.31-2.1.63-3.15.94l.1-.28,3.31-1.06c.48-.22.99-.34,1.47-.55,2.4-1.05,3.96-3.57,3.82-6.21-.07-1.3-.56-2.54-.84-3.8,0-.06.18-.54.22-.62.01-.03-.01-.05.06-.04"/>
      <path class="st50" d="M1452.96,552.05c.12.79.54,1.48,1.07,2.07.5.56,1.04.95,1.72,1.25,1.27.57,2.75.76,4.09.3l.2.81c-.32.09-.62.26-.94.36-3.29,1.1-6.69-.55-8.03-3.68-.03-.08-.21-.48-.18-.53l2.08-.59Z"/>
      <path class="st21" d="M1453.61,545.56c.06.52.16,1.03.23,1.55,0,.04.03.08.05.12-.75.86-.99,1.95-1.09,3.06-.01.11-.06.23-.06.34,0,.2.12.27-.11.36-.33.14-.86.27-1.22.38-.22.06-.46.1-.66.2-.09-1.49.38-2.99,1.16-4.25.4-.66.86-1.21,1.5-1.64.03-.02.18-.14.21-.12"/>
      <path class="st28" d="M1455.88,544.07l.43-.2s.28-.19.3-.17l-.07,1.21-.66.48v-1.32Z"/>
      <path class="st60" d="M1487.32,550.8h-3.83c-.26,0-.69.18-.88.37-.23.25-.8,1.56-.94,1.94-.14.37-.13.6.3.72.87.06,1.84-.08,2.7,0,.09,0,.18.03.21.13l-.79,1.88h-3.18s-.19.52-.19.52h4c.19,0,.58-.29.7-.45.23-.31.63-1.37.76-1.77.08-.25.14-.38.02-.63-.05-.1-.22-.21-.32-.21h-2.74l.81-1.95h3.16s.21-.55.21-.55Z"/>
      <path class="st16" d="M1499.01,556.36l-1.26-5.52h-.07c-.64.03-1.34-.07-1.97-.01-.36.03-.56.2-.74.49-.31.48-.55,1.09-.82,1.59-.5.96-1.03,1.94-1.53,2.92-.09.17-.2.35-.24.53h1.26l1.01-2.05h1.55s.22-.54.22-.54h-1.49l1.18-2.34c.06-.13.18-.11.3-.1l1.15,5.03h1.43Z"/>
      <path class="st27" d="M1503.56,553.72h.66c.06,0,.31-.05.38-.07.27-.08.38-.28.5-.51.13-.26.55-1.25.59-1.49.04-.23.02-.46-.15-.62-.19-.19-.4-.16-.64-.2h-3.64s-2.02,5.54-2.02,5.54h1.36l1.9-5.03h1.88l-.68,1.72c-.08.16-.19.25-.37.27-.35.04-.77-.02-1.12,0-.04,0-.21,0-.21.04l1.52,2.99h1.4l-1.35-2.64Z"/>
      <path class="st24" d="M1512.16,556.36l-1.7-5.51-.08-.03c-.58.05-1.25-.06-1.82,0-.42.05-.54.27-.72.6-.75,1.32-1.45,2.82-2.14,4.18-.12.23-.21.47-.35.69l.03.06h1.35l.97-2.04h1.4s.14-.54.14-.54h-1.32l1.08-2.42.12-.03,1.52,5.02h1.52Z"/>
      <path class="st26" d="M1503.56,553.72l1.35,2.64h-1.4l-1.52-2.99s.17-.04.21-.04c.36-.02.78.04,1.12,0,.18-.02.29-.12.37-.27l.68-1.72h-1.88l-1.9,5.03h-1.36l2.02-5.52h3.64c.24.02.46,0,.64.18.17.17.18.39.15.62-.04.24-.46,1.23-.59,1.49-.12.24-.23.43-.5.51-.07.02-.32.07-.38.07h-.66Z"/>
      <path class="st18" d="M1512.16,556.36h-1.52l-1.52-5.02-.12.03-1.08,2.42h1.32l-.14.53h-1.4s-.97,2.05-.97,2.05h-1.35l-.03-.06c.13-.22.23-.46.35-.69.68-1.37,1.39-2.87,2.14-4.18.19-.33.31-.55.72-.6.57-.06,1.24.04,1.82,0l.08.03,1.7,5.51Z"/>
      <path class="st46" d="M1499.01,556.36h-1.43l-1.15-5.03c-.12,0-.24-.03-.3.1l-1.18,2.34h1.49l-.22.53h-1.55s-1.01,2.05-1.01,2.05h-1.26c.04-.18.15-.37.24-.53.5-.97,1.03-1.95,1.53-2.92.26-.51.51-1.12.82-1.59.19-.29.39-.46.74-.49.63-.06,1.33.04,1.97,0h.07s1.26,5.54,1.26,5.54Z"/>
      <path class="st36" d="M1487.32,550.8l-.21.54h-3.16s-.81,1.97-.81,1.97h2.74c.1,0,.28.11.32.21.12.25.07.39-.02.63-.13.4-.53,1.46-.76,1.77-.12.16-.51.45-.7.45h-4l.19-.51h3.18s.79-1.89.79-1.89c-.03-.1-.12-.12-.21-.13-.86-.08-1.83.06-2.7,0-.43-.12-.43-.35-.3-.72.14-.38.7-1.7.94-1.94.18-.19.61-.37.88-.37h3.83Z"/>
      <path class="st35" d="M1491.94,551.55l-1.84,4.3h-2.2c-.23-.07-.06-.28-.02-.43l1.73-4.06,2.26-.02c.11.04.09.11.06.21M1493.03,550.89c-.26-.14-.47-.06-.72-.06-1.01.01-2.13-.07-3.12,0-.65.04-.85.28-1.11.82-.64,1.33-1.11,2.78-1.75,4.12-.06.13.07.39.16.47.1.09.37.11.51.12,1.22.07,2.51-.06,3.74,0,.48-.05.78-.47.97-.88.5-1.08,1.02-2.42,1.43-3.54.12-.34.33-.82-.11-1.05"/>
    </g>
    <polygon class="st2" points="1398.59 515.33 1398.59 545.73 1386.82 545.73 1389.41 515.33 1398.59 515.33"/>
    <path class="st9" d="M1400.85,545.32c1.43-.21,6.47-.92,11.1-1.02.54-.01,2.64-.04,5.32.39,1.35.22,2.53.41,2.53.63,0,.47-5.13.98-9.47.85-3.94-.11-7.2-.51-9.47-.85Z"/>
    <path class="st12" d="M1468.59,560.25c2.56-.51,11.58-2.28,19.93-2.88.96-.07,4.75-.33,9.64.19,2.45.26,4.61.49,4.62.9.03.85-9.17,2.25-17.01,2.43-7.13.17-13.04-.23-17.18-.64Z"/>
  </g>
  <g>
    <path class="st4" d="M483.21,560c.16-1.73.38-4.25.56-7.47"/>
    <path class="st6" d="M484.13,537.3c-.33-44.64-12.74-139.12-105.88-210-45.52-34.64-95.05-52.02-130.31-61"/>
    <path class="st4" d="M240.53,264.49c-2.53-.6-4.96-1.15-7.3-1.66"/>
  </g>
  <path class="st7" d="M256.31,258.04c61.45,4.69,144.78,11.35,243.76,20.16,122.96,10.94,146.85,14.22,172.96,25.45,31.38,13.49,123.94,63.35,139.11,256.36"/>
  <line class="st8" x1="295.5" y1="262.83" x2="1380.04" y2="527.02"/>
  <text class="st11" transform="translate(255.24 480.53)"><tspan x="0" y="0">揚力の不足</tspan></text>
  <text class="st13" transform="translate(257.39 535.68)"><tspan x="0" y="0">&gt;~50m</tspan></text>
  <text class="st11" transform="translate(553.13 480.53)"><tspan x="0" y="0">安定性の不足</tspan></text>
  <text class="st11" transform="translate(1200.29 301.52)"><tspan x="0" y="0">定常滑空</tspan></text>
  <text class="st10" transform="translate(1198.99 412.7)"><tspan x="0" y="0">200m</tspan></text>
  <text class="st13" transform="translate(555.28 535.68)"><tspan x="0" y="0">&gt;~100m</tspan></text>
</svg>