<?xml version="1.0" encoding="UTF-8"?>
<svg xmlns="http://www.w3.org/2000/svg" version="1.1" viewBox="0 0 1080 1080">
  <!-- Generator: Adobe Illustrator 29.6.1, SVG Export Plug-In . SVG Version: 2.1.1 Build 9)  -->
  <defs>
    <style>
      .st0 {
        fill: none;
      }

      .st1 {
        fill: #fff;
      }
    </style>
  </defs>
  <g id="_レイヤー_2" data-name="レイヤー_2">
    <rect class="st0" width="1080" height="1080"/>
  </g>
  <g id="_レイヤー_3" data-name="レイヤー_3">
    <g>
      <path class="st1" d="M893.39,328.1c25.34-52.6,46.11-107.63,59.93-164.48-1.12-1.46-2.18-2.99-3.38-4.38-16.06-18.65-42.04-42.42-61.94-56.89-14.05-10.21-31.23-21.74-49.17-21.49l7.61,9.61c49.21,88.23,23.16,197.75-18.05,284.06-44.47,93.14-118.88,165.91-203.85,222.4-18.36,12.21-38.85,24.54-59.94,30.96l2.82,16.88c.7.73,10.23-4.68,11.72-5.51,84.26-46.54,157.89-116.86,223.14-186.78,35.11-37.62,67.97-76.54,90.05-123.56l1.06-.83Z"/>
      <path class="st1" d="M898.85,438.32c35.73-24.33,69.57-51.25,104.91-76.16l.83-1.27c3.31-23.93-4.64-49.18-13.55-71.18-6.16-15.21-13.76-30.01-21.8-44.3l-17.91,46.76c-28.69,66.77-70.65,127.64-126.25,174.69-10.8,9.14-22.33,17.54-33.37,26.4-.23,1.89.7.57,1.72.31,34.58-8.74,76.07-35.27,105.41-55.25Z"/>
      <path class="st1" d="M455.62,249.61c-1.83-.33-1.09.26-1.46,1-.98,1.92-5.55,13.92-5.51,15.45,6.97,31.5,19.31,62.54,21.03,95,3.51,65.96-35.48,129.06-95.64,155.36-12.03,5.26-24.95,8.28-36.87,13.76l-82.89,26.63-2.56,7.09c26.29-7.69,52.51-15.69,78.75-23.55,49.98-14.96,83.18-30.75,135.47-8.22,42.13,18.16,64.78,49.47,77.76,92.4,7.48,24.75,12.6,50.26,19.85,75.07l6.48-12.17-18.73-71.2c-8.71-71.72,31.86-145.6,98.9-173.1l103.76-36.16,3.3-7.6-100.54,31.29c-72.56,20-150.34-24-178.1-91.92l-23.01-89.15Z"/>
      <path class="st1" d="M430.31,344.53v33.05l16.51-11.96,1.77-30.22c-.6-.6-6.62,3.1-7.6,4.15l-10.68,4.99Z"/>
      <path class="st1" d="M412.73,354.38l-24.44,16.6,6.86,33.31c.88.92,7.34-6.45,8.43-7.39,2.96-2.55,7.03-4.49,9.15-7.73v-34.8Z"/>
      <path class="st1" d="M373.35,381.8c-.53-.48-4.32,2.38-5.14,2.94-16.03,10.85-27.55,24.72-37.62,41.13-19.34,31.51-31.13,69.1-28.94,106.4,4.94-2.52,11.07-3.38,16.47-4.96,9.09-2.67,22.26-5.95,30.61-9.47,5.9-2.49,2.68-4,2.78-9.13.05-2.65,1.19-5.74,1.45-8.44,2.59-27.85,8.61-55.19,27.4-76.6-.53-.93-1.06-1.93-1.22-3.01-1.9-12.96-4.24-25.85-5.79-38.86Z"/>
      <path class="st1" d="M1000.54,431.72c-1.21-.31-1.41.5-2.11,1.05-3.08,2.39-6.1,6.42-9.12,9.16-46.34,41.93-134.89,96.72-197.29,104.35-7.66.94-15.52.52-23.18,1.43-1.05.13-2.16.14-2.43,1.43,16.18,2.81,32.42,5.93,48.87,7.03,20.35,1.37,40.32-.34,60.47-2.09,39.75-3.46,104.22-6.81,119.9-51.66,4.78-13.69,7.37-38.93,7.03-53.5-.13-5.37-1.55-11.77-2.14-17.19Z"/>
      <path class="st1" d="M357.19,544.21l-51.94,14.86c-.72,1.16,3.61,11.26,4.48,13.27,33.64,78.33,118.67,119.65,201.05,92.06,7.97-2.67,15.54-6.82,23.58-9.12l-4.91-20.37c-33.51,11.32-70.59,6.7-102.43-7.61-17.18-7.72-30.6-17.34-43.13-31.4-13.12-14.71-23.58-32.02-26.7-51.7Z"/>
      <path class="st1" d="M942.19,581.49c-6.52,2.19-12.54,6.08-18.99,8.77-51.21,21.35-112.38,22.36-164.18,2.48-5.95-2.28-11.66-5.35-17.54-7.77-.67-.28-1.95-1.36-2.48-.33l14.74,16.9c18.54,18.9,39.89,35.47,55.27,57.16,29.71-5.38,59.69-14.01,85.84-29.28,19.55-11.42,37.78-26.98,47.34-47.93Z"/>
      <path class="st1" d="M300.23,781.17h-95.98c-6.55,0-17.31,4.59-21.9,9.39-5.87,6.14-19.98,39.14-23.46,48.61s-3.27,14.97,7.44,17.9c21.76,1.55,46.03-1.91,67.49.01,2.36.21,4.62.65,5.26,3.24l-19.71,47.08-79.69.32-4.69,12.68h100.2c4.87,0,14.62-7.35,17.53-11.3,5.64-7.64,15.66-34.31,19.02-44.26,2.08-6.17,3.5-9.58.4-15.84-1.22-2.47-5.59-5.24-8.12-5.24h-68.55l20.38-48.88,79.01-.31,5.38-13.39Z"/>
      <path class="st1" d="M592.73,920.39l-31.59-138.21-1.77-.34c-15.9,1.12-33.56-1.39-49.24.05-8.96.82-13.99,5-18.66,12.28-7.63,11.92-13.83,27.18-20.45,39.87-12.58,24.11-25.75,48.59-38.27,72.97-2.17,4.23-4.89,8.87-5.96,13.38h31.64l25.41-51.24,38.78-.08,5.42-13.37h-37.27l29.65-58.59c1.61-3.18,4.46-2.75,7.58-2.55l28.86,125.82h35.86Z"/>
      <path class="st1" d="M706.64,854.3h16.52c1.53,0,7.77-1.23,9.49-1.76,6.69-2.09,9.52-6.94,12.48-12.84,3.2-6.39,13.84-31.26,14.78-37.25s.61-11.4-3.71-15.64c-4.75-4.68-10.03-3.99-16.14-4.96l-91.11.35-50.6,138.19h34.1l47.46-125.86h47.11l-17.06,43.06c-2.06,3.98-4.69,6.35-9.3,6.87-8.65.97-19.19-.49-28.16-.02-.9.05-5.24.2-5.23,1.07l37.96,74.88h35.16l-33.75-66.09Z"/>
      <path class="st1" d="M921.8,920.39l-42.53-137.82-2.08-.73c-14.6,1.17-31.33-1.47-45.67.11-10.48,1.16-13.43,6.65-18.12,14.93-18.7,33.03-36.31,70.57-53.45,104.75-2.9,5.78-5.3,11.83-8.66,17.38l.7,1.38h33.75l24.4-51.18,34.98-.18,3.55-13.33h-33.05l27.09-60.45,3.07-.63,38.05,125.77h37.97Z"/>
      <g>
        <g>
          <path d="M893.39,328.1l-1.06.83c-22.08,47.01-54.94,85.93-90.05,123.56-65.25,69.92-138.88,140.23-223.14,186.78-1.49.82-11.02,6.24-11.72,5.51l-2.82-16.88c21.09-6.42,41.58-18.76,59.94-30.96,84.97-56.49,159.38-129.26,203.85-222.4,41.21-86.31,67.26-195.83,18.05-284.06l-7.61-9.61c17.94-.25,35.12,11.28,49.17,21.49,19.9,14.46,45.88,38.24,61.94,56.89,1.2,1.39,2.26,2.92,3.38,4.38-13.82,56.85-34.59,111.88-59.93,164.48Z"/>
          <path d="M898.85,438.32c-29.34,19.97-70.83,46.5-105.41,55.25-1.02.26-1.95,1.58-1.72-.31,11.05-8.85,22.57-17.25,33.37-26.4,55.59-47.05,97.56-107.93,126.25-174.69l17.91-46.76c8.04,14.29,15.64,29.09,21.8,44.3,8.9,22,16.86,47.25,13.55,71.18l-.83,1.27c-35.33,24.92-69.18,51.83-104.91,76.16Z"/>
          <path d="M1000.54,431.72c.59,5.42,2.02,11.82,2.14,17.19.34,14.56-2.25,39.81-7.03,53.5-15.68,44.86-80.15,48.21-119.9,51.66-20.15,1.75-40.12,3.46-60.47,2.09-16.46-1.1-32.69-4.22-48.87-7.03.27-1.29,1.38-1.3,2.43-1.43,7.66-.91,15.52-.5,23.18-1.43,62.4-7.63,150.95-62.42,197.29-104.35,3.02-2.73,6.04-6.77,9.12-9.16.7-.54.9-1.36,2.11-1.05Z"/>
          <path d="M942.19,581.49c-9.56,20.94-27.79,36.5-47.34,47.93-26.16,15.28-56.13,23.9-85.84,29.28-15.38-21.69-36.73-38.26-55.27-57.16l-14.74-16.9c.53-1.03,1.82.05,2.48.33,5.88,2.43,11.59,5.49,17.54,7.77,51.8,19.88,112.97,18.87,164.18-2.48,6.45-2.69,12.47-6.59,18.99-8.77Z"/>
        </g>
        <g>
          <path d="M455.62,249.61l23.01,89.15c27.76,67.92,105.54,111.91,178.1,91.92l100.54-31.29-3.3,7.6-103.76,36.16c-67.04,27.5-107.61,101.38-98.9,173.1l18.73,71.2-6.48,12.17c-7.25-24.81-12.37-50.32-19.85-75.07-12.98-42.92-35.63-74.24-77.76-92.4-52.29-22.54-85.49-6.74-135.47,8.22-26.25,7.85-52.46,15.86-78.75,23.55l2.56-7.09,82.89-26.63c11.92-5.48,24.83-8.5,36.87-13.76,60.16-26.3,99.15-89.4,95.64-155.36-1.73-32.46-14.07-63.5-21.03-95-.04-1.53,4.52-13.53,5.51-15.45.38-.74-.37-1.33,1.46-1Z"/>
          <path d="M357.19,544.21c3.12,19.68,13.58,36.99,26.7,51.7,12.54,14.06,25.95,23.67,43.13,31.4,31.84,14.31,68.91,18.93,102.43,7.61l4.91,20.37c-8.04,2.3-15.6,6.45-23.58,9.12-82.38,27.58-167.42-13.73-201.05-92.06-.86-2.01-5.2-12.11-4.48-13.27l51.94-14.86Z"/>
          <path d="M373.35,381.8c1.55,13.01,3.89,25.89,5.79,38.86.16,1.08.69,2.08,1.22,3.01-18.79,21.41-24.81,48.75-27.4,76.6-.25,2.7-1.39,5.79-1.45,8.44-.1,5.13,3.12,6.64-2.78,9.13-8.35,3.52-21.52,6.8-30.61,9.47-5.4,1.59-11.53,2.44-16.47,4.96-2.18-37.3,9.61-74.89,28.94-106.4,10.07-16.41,21.59-30.28,37.62-41.13.82-.55,4.61-3.42,5.14-2.94Z"/>
        </g>
      </g>
      <path d="M412.73,354.38v34.8c-2.12,3.24-6.19,5.18-9.15,7.73-1.08.93-7.54,8.31-8.43,7.39l-6.86-33.31,24.44-16.6Z"/>
      <path d="M430.31,344.53l10.68-4.99c.98-1.04,7-4.75,7.6-4.15l-1.77,30.22-16.51,11.96v-33.05Z"/>
      <path d="M279.36,917.36c-2.35-2-5.56-8.56-4.1-11.76,16.06-33.45,27.86-69.76,43.84-103.11,6.54-13.66,11.66-19.54,27.88-20.64,24.85-1.69,52.81.35,78.1.06,6.44-.07,11.53-1.95,18.09,1.54,10.79,5.74,5.75,17.62,2.64,26.22-10.16,28.02-23.33,61.74-35.74,88.71-4.71,10.24-12.27,20.68-24.36,22.05-30.7-1.47-63.06,1.86-93.57,0-3.53-.21-10.14-.83-12.76-3.06ZM369.74,907.63l46.03-107.59c.68-2.34,1.17-4.28-1.6-5.19l-56.64.38-43.25,101.6c-.92,3.85-5.18,8.99.52,10.76l54.94.04Z"/>
      <path d="M706.64,854.3l33.75,66.09h-35.16l-37.96-74.88c0-.87,4.33-1.02,5.23-1.07,8.97-.47,19.51.99,28.16.02,4.61-.52,7.24-2.89,9.3-6.87l17.06-43.06h-47.11l-47.46,125.86h-34.1l50.6-138.19,91.11-.35c6.11.97,11.39.28,16.14,4.96,4.31,4.25,4.62,9.83,3.71,15.64s-11.59,30.86-14.78,37.25c-2.95,5.9-5.78,10.75-12.48,12.84-1.71.53-7.96,1.76-9.49,1.76h-16.52Z"/>
      <path d="M921.8,920.39h-37.97l-38.05-125.77-3.07.63-27.09,60.45h33.05l-3.55,13.33-34.98.18-24.4,51.18h-33.75l-.7-1.38c3.36-5.55,5.76-11.6,8.66-17.38,17.14-34.18,34.75-71.72,53.45-104.75,4.68-8.28,7.64-13.77,18.12-14.93,14.34-1.58,31.06,1.06,45.67-.11l2.08.73,42.53,137.82Z"/>
      <path d="M592.73,920.39h-35.86l-28.86-125.82c-3.12-.21-5.97-.63-7.58,2.55l-29.65,58.59h37.27l-5.42,13.37-38.78.08-25.41,51.24h-31.64c1.07-4.51,3.79-9.15,5.96-13.38,12.51-24.39,25.69-48.86,38.27-72.97,6.62-12.69,12.82-27.95,20.45-39.87,4.66-7.29,9.69-11.46,18.66-12.28,15.68-1.44,33.34,1.08,49.24-.05l1.77.34,31.59,138.21Z"/>
      <path d="M300.23,781.17l-5.38,13.39-79.01.31-20.38,48.88h68.55c2.53,0,6.9,2.77,8.12,5.24,3.1,6.26,1.68,9.67-.4,15.84-3.35,9.96-13.37,36.62-19.02,44.26-2.91,3.94-12.67,11.3-17.53,11.3h-100.2l4.69-12.68,79.69-.32,19.71-47.08c-.64-2.59-2.9-3.03-5.26-3.24-21.46-1.92-45.73,1.54-67.49-.01-10.71-2.93-10.83-8.69-7.44-17.9s17.59-42.47,23.46-48.61c4.59-4.8,15.35-9.39,21.9-9.39h95.98Z"/>
      <path class="st0" d="M369.74,907.63l-54.94-.04c-5.69-1.77-1.44-6.9-.52-10.76l43.25-101.6,56.64-.38c2.77.91,2.28,2.85,1.6,5.19l-46.03,107.59Z"/>
    </g>
  </g>
</svg>